<svg width="34" height="22" viewBox="0 0 34 22" fill="none" xmlns="http://www.w3.org/2000/svg">
<path d="M33 20H9C8.44772 20 8 20.4477 8 21C8 21.5523 8.44772 22 9 22H33C33.5523 22 34 21.5523 34 21C34 20.4477 33.5523 20 33 20Z" fill="white"/>
<path d="M33 10H1C0.447715 10 0 10.4477 0 11C0 11.5523 0.447715 12 1 12H33C33.5523 12 34 11.5523 34 11C34 10.4477 33.5523 10 33 10Z" fill="white"/>
<path d="M33 0H1C0.447715 0 0 0.447715 0 1C0 1.55228 0.447715 2 1 2H33C33.5523 2 34 1.55228 34 1C34 0.447715 33.5523 0 33 0Z" fill="white"/>
</svg>
